<svg width="48" height="44" viewBox="0 0 48 44" fill="none" xmlns="http://www.w3.org/2000/svg">
<path d="M47.7482 38.4475H47.7482V11.8153V11.8083L47.7483 11.8083C47.8112 9.55508 46.0355 7.67755 43.7822 7.61474L43.7822 7.61474C43.6887 7.6121 43.595 7.61273 43.5014 7.61653L43.4912 7.61695V7.61674H33.9504H33.7004V7.36674V5.55234V5.54585L33.7005 5.54585C33.7616 3.19562 31.9059 1.24083 29.5557 1.17971L47.7482 38.4475ZM47.7482 38.4475L47.7483 38.4539L47.7482 38.4475ZM18.5564 1.17822H18.5563C16.2053 1.17738 14.2987 3.08262 14.2979 5.43369L18.5564 1.17822ZM18.5564 1.17822H29.4435C29.4806 1.17822 29.5179 1.17875 29.5556 1.17971L18.5564 1.17822ZM14.2996 5.55223H14.2995V7.36674V7.61674H14.0495H4.50874H4.49851L4.49852 7.61653C2.24623 7.52437 0.34571 9.27529 0.2534 11.5274L14.2996 5.55223ZM14.2996 5.55223L14.2994 5.54513M14.2996 5.55223L14.2994 5.54513M14.2994 5.54513C14.2984 5.50854 14.2979 5.47143 14.2979 5.43377L14.2994 5.54513ZM0.251801 11.8153H0.251702V38.4475V38.454L0.251617 38.454C0.19056 40.8042 2.04627 42.759 4.39647 42.8201C4.39651 42.8201 4.39655 42.8201 4.39659 42.8201L4.3901 43.07L0.251801 11.8153ZM0.251801 11.8153L0.251602 11.8083M0.251801 11.8153L0.251602 11.8083M0.251602 11.8083C0.248966 11.7147 0.249595 11.6211 0.253397 11.5275L0.251602 11.8083ZM18.4227 3.02314L18.4229 3.02312C18.467 3.02078 18.5117 3.01952 18.5568 3.01963M18.4227 3.02314L29.4435 3.26963V3.01963H29.4433C29.4432 3.01963 29.4432 3.01963 29.4431 3.01963L18.5568 3.01963M18.4227 3.02314C17.0929 3.09512 16.0726 4.22975 16.1408 5.55891L18.4227 3.02314ZM18.5568 3.01963H18.5564V3.26963L18.5571 3.01964C18.557 3.01964 18.5569 3.01963 18.5568 3.01963ZM43.625 40.9768L43.6248 40.9768C43.5806 40.9792 43.5358 40.9804 43.4906 40.9803M43.625 40.9768L43.4913 40.7303M43.625 40.9768C44.9549 40.9048 45.9752 39.7702 45.9071 38.441V30.7798V30.3181L45.5204 30.5705C44.9227 30.9606 44.2168 31.1514 43.5039 31.1155L43.5039 31.1152H43.4913H31.6093H31.3593V31.3652V34.7402C31.2621 35.3184 30.7816 35.7559 30.1959 35.7978H17.8041C17.2185 35.7559 16.738 35.3184 16.6408 34.7402V31.3652V31.1152H16.3908H4.50874V31.1149L4.49621 31.1155C3.78329 31.1513 3.07736 30.9605 2.47962 30.5705L2.093 30.3182V30.7798V38.4411C2.09088 38.4831 2.08975 38.5255 2.08987 38.5683M43.625 40.9768L4.50874 40.7303M43.4906 40.9803L43.4913 40.7303M43.4906 40.9803H43.4913V40.7303M43.4906 40.9803H4.50912M43.4913 40.7303H4.50874M4.50912 40.9803L4.50874 40.7303M4.50912 40.9803H4.50874V40.7303M4.50912 40.9803C3.175 40.9823 2.09194 39.9024 2.08987 38.5683M2.08987 38.5683C2.08987 38.5683 2.08986 38.5682 2.08986 38.5682L2.33986 38.5678L2.08987 38.5685C2.08987 38.5685 2.08987 38.5684 2.08987 38.5683ZM43.625 29.2703L43.6248 29.2703C43.5808 29.2727 43.5363 29.2739 43.4913 29.2738C43.4911 29.2738 43.4908 29.2738 43.4906 29.2738M43.625 29.2703L43.4913 29.0238L43.4906 29.2738M43.625 29.2703C44.9549 29.1983 45.9751 28.0637 45.9069 26.7344V11.8229M43.625 29.2703L45.9069 11.8229M43.4906 29.2738L31.6091 29.2738H31.3591V29.0238V26.507C31.3591 26.2983 31.2396 26.1192 31.0162 25.9803C30.7904 25.8399 30.4863 25.7619 30.2043 25.7619H17.7956C17.5137 25.7619 17.2096 25.8399 16.9837 25.9803C16.7603 26.1192 16.6408 26.2983 16.6408 26.507V29.0238V29.2738H16.3908H4.50912L43.4906 29.2738ZM45.9018 11.488C45.7905 10.2598 44.7077 9.35326 43.4803 9.45815H4.51972C4.40943 9.44873 4.29859 9.44756 4.18831 9.4545L4.18829 9.4545C2.95626 9.53214 2.01978 10.5916 2.093 11.8229V26.7346L45.9018 11.488ZM45.9018 11.488C45.9119 11.5994 45.9136 11.7115 45.9069 11.8229M45.9018 11.488L45.9069 11.8229M18.4821 33.7064V33.9564H18.7321H29.268H29.518V33.7064V27.8532V27.6032H29.268H18.7321H18.4821V27.8532V33.7064Z" fill="white" stroke="white" stroke-width="0.5"/>
</svg>
