<svg width="44" height="44" viewBox="0 0 44 44" fill="none" xmlns="http://www.w3.org/2000/svg">
<path fill-rule="evenodd" clip-rule="evenodd" d="M43.392 23.0944C43.7709 22.8586 44.0009 22.4435 43.9999 21.9972C43.999 21.551 43.7672 21.1369 43.3873 20.9027L38.9156 18.1461L43.392 15.36C43.7695 15.125 43.9992 14.7121 43.9999 14.2675C44.0006 13.8229 43.7721 13.4093 43.3953 13.1732L22.6844 0.19671C22.2658 -0.0655701 21.7341 -0.0655701 21.3155 0.19671L0.604656 13.1732C0.227908 13.4093 -0.000599195 13.8229 1.18014e-06 14.2675C0.000689862 14.7122 0.2304 15.1251 0.607922 15.36L5.05362 18.127L0.605945 20.907C0.228681 21.1428 -0.000341384 21.5564 8.83021e-05 22.0013C0.000517988 22.4462 0.230314 22.8594 0.608008 23.0945L5.05371 25.8615L0.605945 28.6413C0.229283 28.8768 0.000346114 29.2895 8.83021e-05 29.7337C-0.000169509 30.178 0.228337 30.591 0.604742 30.8268L21.3156 43.8033C21.5249 43.9344 21.7625 44 22 44C22.2375 44 22.4751 43.9344 22.6844 43.8033L43.3953 30.8268C43.7729 30.5902 44.0015 30.1753 43.9999 29.7297C43.9983 29.2841 43.7666 28.8709 43.3873 28.6371L38.9156 25.8806L43.392 23.0944ZM21.581 43.3796C21.7093 43.4599 21.8545 43.5 22 43.5C22.1455 43.5 22.2908 43.4599 22.4189 43.3796L43.1298 30.4031C43.3609 30.2583 43.5009 30.0043 43.4999 29.7315C43.4989 29.4588 43.3571 29.2059 43.1249 29.0627L37.9661 25.8826L43.1278 22.6699C43.3597 22.5256 43.5005 22.2715 43.4999 21.9983C43.4993 21.7252 43.3575 21.4718 43.1249 21.3283C43.1249 21.3283 43.1249 21.3283 43.1249 21.3283L37.9661 18.1482L43.1278 14.9355C43.3588 14.7917 43.4995 14.5389 43.4999 14.2668C43.5003 13.9946 43.3605 13.7414 43.1298 13.5969L22.4189 0.620413C22.1627 0.459865 21.8372 0.459863 21.581 0.620411L0.870142 13.5969C0.870138 13.5969 0.870146 13.5969 0.870142 13.5969C0.639594 13.7414 0.499667 13.9945 0.500002 14.2668M21.581 43.3796L0.870216 30.4031C0.639813 30.2587 0.49993 30.0059 0.500088 29.734C0.500246 29.4621 0.640378 29.2094 0.870988 29.0653L5.99853 25.8606L0.872252 22.67C0.641003 22.5261 0.500351 22.2731 0.500088 22.0008C0.499825 21.7285 0.639992 21.4753 0.870957 21.331L5.99841 18.1261L0.872127 14.9355C0.641181 14.7918 0.500456 14.539 0.500002 14.2668M2.77884 14.2635L22 2.22037L41.2212 14.2636L22 26.2269L2.77884 14.2635ZM41.216 29.7399L22 41.7798L2.77664 29.7353L7.49033 26.7892L21.5831 35.5606C21.7107 35.64 21.8552 35.6797 22 35.6797C22.1448 35.6797 22.2893 35.64 22.4169 35.5606L22.6811 35.9851C22.4727 36.1148 22.2363 36.1797 22 36.1797C21.7637 36.1797 21.5273 36.1148 21.3189 35.9851L7.49089 27.3785L3.71919 29.7358L22 41.1898L40.2688 29.7434L36.471 27.4022L22.6811 35.9851L22.4169 35.5606L36.4697 26.814L41.216 29.7399ZM22 33.9613L2.78014 21.9987L7.49033 19.0548L21.5831 27.8262C21.7107 27.9057 21.8552 27.9454 22 27.9454C22.1448 27.9454 22.2893 27.9057 22.4169 27.8262L36.4697 19.0797L41.2123 22.0032L22 33.9613ZM3.7228 14.2621L22 25.638L40.2772 14.2621L22 2.8104L3.7228 14.2621ZM22 33.3723L3.72495 21.9979L7.49089 19.6441L21.3189 28.2507C21.5273 28.3805 21.7637 28.4454 22 28.4454C22.2363 28.4454 22.4727 28.3805 22.6811 28.2507L36.471 19.6678L40.2629 22.0053L22 33.3723Z" fill="#F78CB6"/>
</svg>
