<svg width="25" height="22" viewBox="0 0 25 22" fill="none" xmlns="http://www.w3.org/2000/svg">
<path d="M25 2.84195C23.4274 2.91732 23.4617 2.91118 23.284 2.92665L24.2153 0.160458C24.2153 0.160458 21.3081 1.27269 20.5711 1.47165C18.6356 -0.337635 15.7585 -0.417576 13.7016 0.897183C12.0172 1.9741 11.1132 3.82345 11.4147 5.98503C8.13656 5.51193 5.37453 3.89586 3.19385 1.17152L2.50416 0.310025L1.98879 1.29431C1.33743 2.53805 1.12114 3.96013 1.37959 5.29849C1.48563 5.84756 1.66588 6.37124 1.91555 6.8616L1.32389 6.62317L1.2537 7.65129C1.18256 8.69568 1.51691 9.91482 2.14825 10.9122C2.32601 11.1931 2.55489 11.5015 2.845 11.8058L2.53925 11.757L2.91233 12.9351C3.40271 14.483 4.42123 15.6805 5.74303 16.3462C4.42295 16.9288 3.35655 17.3005 1.6037 17.9002L0 18.4485L1.48125 19.2907C2.04601 19.6119 4.04167 20.6844 6.01349 21.0062C10.3966 21.7211 15.3315 21.1389 18.6537 18.0271C21.4519 15.4061 22.3701 11.6779 22.1794 7.79808C22.1506 7.21072 22.3053 6.65014 22.615 6.21989C23.2355 5.3584 24.9962 2.8477 25 2.84195ZM21.4437 5.30742C20.9293 6.02173 20.6716 6.934 20.7178 7.87584C20.9103 11.7894 19.8864 14.8243 17.6744 16.8961C15.0906 19.3163 10.9228 20.2663 6.24027 19.5024C5.39226 19.3641 4.51584 19.0545 3.79047 18.7452C5.26009 18.2193 6.39496 17.7506 8.22773 16.8484L10.7862 15.589L7.96146 15.401C6.60839 15.3109 5.48172 14.629 4.78916 13.5217C5.1569 13.4995 5.51147 13.4376 5.86452 13.3352L8.55865 12.5549L5.84202 11.863C4.52194 11.5267 3.76949 10.7053 3.37067 10.0753C3.10879 9.66131 2.9377 9.23721 2.83508 8.84623C3.10745 8.92221 3.42503 8.97636 3.93715 9.02913L6.45161 9.28779L4.45938 7.67152C3.02391 6.50712 2.44865 4.75775 2.87037 3.07602C7.35035 7.90857 12.6104 7.54536 13.1399 7.67311C13.0234 6.49582 12.9898 6.38096 12.9898 6.38096C12.9898 6.38096 13.7978 2.62236 14.468 2.19389C15.868 1.29907 18.0902 1.16418 19.6295 2.63842C19.9619 2.9566 20.4115 3.08177 20.8322 2.97306C21.2099 2.87547 21.5198 2.77212 21.8233 2.65965L21.1916 4.53578L21.998 4.53637C21.8458 4.74862 21.6633 5.00273 21.4437 5.30742Z" fill="#A7A7A7"/>
</svg>
